<?xml version="1.0" standalone="no"?>
<!DOCTYPE svg PUBLIC "-//W3C//DTD SVG 20010904//EN"
 "http://www.w3.org/TR/2001/REC-SVG-20010904/DTD/svg10.dtd">
<svg version="1.0" xmlns="http://www.w3.org/2000/svg"
 width="1024.000000pt" height="680.000000pt" viewBox="0 0 1024.000000 680.000000"
 preserveAspectRatio="xMidYMid meet">

<g transform="translate(0.000000,680.000000) scale(0.100000,-0.100000)"
fill="#000000" stroke="none">
<path d="M4995 6454 c-610 -67 -1173 -307 -1650 -705 -131 -110 -347 -327
-460 -463 -402 -483 -635 -1037 -701 -1666 -20 -193 -14 -653 10 -825 77 -537
252 -974 564 -1410 158 -221 443 -513 677 -696 209 -162 510 -335 753 -433
575 -231 1281 -284 1927 -145 679 147 1320 551 1791 1130 412 505 634 1055
695 1719 18 199 6 598 -25 800 -97 642 -369 1200 -824 1685 -269 288 -577 523
-897 687 -367 187 -708 286 -1134 328 -145 14 -571 10 -726 -6z m790 -558
c216 -33 425 -89 610 -163 470 -189 932 -571 1230 -1018 222 -334 344 -652
406 -1065 29 -191 32 -569 6 -760 -64 -461 -225 -856 -495 -1215 -441 -586
-1049 -958 -1727 -1059 -569 -85 -1146 2 -1625 245 -265 134 -471 287 -705
523 -406 408 -640 859 -736 1416 -27 158 -38 566 -20 747 71 710 423 1337
1017 1815 372 299 828 487 1319 543 156 18 579 13 720 -9z"/>
<path d="M5165 5373 c-87 -8 -293 -46 -374 -69 -364 -104 -673 -293 -952 -580
-421 -435 -617 -948 -596 -1564 9 -248 44 -441 122 -656 151 -416 464 -805
860 -1067 598 -395 1449 -444 2096 -121 545 273 965 773 1122 1334 96 342 102
770 17 1120 -87 354 -261 665 -530 944 -370 384 -802 600 -1312 655 -90 10
-361 12 -453 4z m471 -1019 c157 -320 235 -469 249 -475 11 -4 245 -40 520
-80 275 -40 502 -74 505 -77 3 -2 -164 -171 -372 -376 l-376 -371 89 -514 c49
-283 87 -516 85 -518 -1 -2 -213 107 -469 242 l-467 245 -466 -245 c-257 -135
-468 -244 -470 -242 -2 2 36 236 85 520 l89 516 -211 208 c-486 477 -537 527
-537 533 0 5 203 36 760 116 135 19 254 39 265 43 14 6 91 153 250 475 127
256 232 466 236 466 3 0 109 -210 235 -466z"/>
</g>
</svg>
