<svg xmlns="http://www.w3.org/2000/svg" viewBox="0 0 528.51 142.47"><defs><style>.cls-1{fill:#000000;}.cls-2{fill:#000000;}.cls-3{fill:#000000;}.cls-4{fill:#000000;}</style></defs><g id="Vrstva_2" data-name="Vrstva 2"><path class="cls-1" d="M37.9,60.62H28.1v-14H54v7.7c9.94-7.56,15-9.66,23.24-9.66,8.68,0,14.84,3.08,18.06,9,2.52,4.9,3.5,10.78,3.5,21.7v25.06h9.66v14H73.88v-14H82.7V74.48c0-10.92-2.8-15.26-9.8-15.26C67,59.22,61,62.44,54,69.3v31.08h9.24v14H28.1v-14h9.8Z"/><path class="cls-1" d="M190.11,80.5c0,21.7-13.58,35.84-34.16,35.84-21,0-34.3-14-34.3-36.4,0-21.14,13.72-35.28,34.3-35.28S190.11,58.8,190.11,80.5ZM138,80.22c0,13.86,6.58,22.12,17.92,22.12,11.06,0,17.78-8.26,17.78-21.84S167,58.66,156,58.66,138,66.92,138,80.22Z"/><path class="cls-1" d="M201.84,46.62h12L215.7,25.2H230V46.62H252.8v14H230V88.9c0,10.08,2.38,13.16,10.08,13.16a31.75,31.75,0,0,0,12-2.66l3.36,13.44a50.1,50.1,0,0,1-17.36,3.22c-16.38,0-24.22-8-24.22-25.06V60.62h-12Z"/><path class="cls-1" d="M288.83,85.12c1,5.88,1.54,7.84,3.36,10.22,3.36,4.76,8,7,15.12,7,8,0,14.14-2,22.82-7.14l7.28,12.18c-10.22,6.3-19.32,9.1-30.52,9.1-21.28,0-34.44-13.58-34.44-35.7s13-36.12,33.6-36.12c13.16,0,23.38,6.16,28.42,17.36,2.8,6.3,3.92,12.32,4.06,23.1Zm33.88-12.18C320.61,63,315,58.1,305.77,58.1c-9,0-14.56,5-16.8,14.84Z"/><path class="cls-1" d="M370.58,60.62h-9.8v-14h25.34V57C392,48.3,397.6,44.66,405.58,44.66a33.47,33.47,0,0,1,11.48,2L414.82,61a25.84,25.84,0,0,0-9.8-1.68c-7.7,0-12,3.36-18.34,14.14v26.88h13.16v14H360.78v-14h9.8Z"/><circle class="cls-2" cx="494.47" cy="106.22" r="11.04"/><circle class="cls-3" cx="465.24" cy="106.22" r="11.04"/><circle class="cls-4" cx="436" cy="106.22" r="11.04"/></g></svg>