<svg width="174" height="35" viewBox="0 0 174 35" fill="none" xmlns="http://www.w3.org/2000/svg">
<path d="M4.32 8.64C6.672 8.64 8.64 6.672 8.64 4.32C8.64 1.968 6.672 0 4.32 0C1.968 0 0 1.968 0 4.32C0 6.672 1.968 8.64 4.32 8.64ZM0.72 34.752H7.92V10.752H0.72V34.752Z" fill="black"/>
<path d="M26.8687 1.152H13.4288V34.752H26.8687C36.1328 34.752 43.1888 27.456 43.1888 17.952C43.1888 8.448 36.1328 1.152 26.8687 1.152ZM26.8687 27.36H21.1088V8.544H26.8687C32.1488 8.544 35.7968 12.192 35.7968 17.952C35.7968 23.712 32.1488 27.36 26.8687 27.36Z" fill="black"/>
<path d="M55.1869 27.36V21.408H67.1869V14.112H55.1869V8.544H68.3869V1.152H47.5069V34.752H68.6269V27.36H55.1869Z" fill="black"/>
<path d="M81.024 34.752H90.816L101.76 1.152H93.36L85.92 25.872L78.48 1.152H70.08L81.024 34.752Z" fill="black"/>
<path d="M104.647 1.152V34.752H112.327V1.152H104.647Z" fill="black"/>
<path d="M134.133 35.424C140.277 35.424 145.653 32.4 148.533 27.648L141.909 23.808C140.469 26.4 137.541 27.936 134.133 27.936C128.181 27.936 124.341 23.952 124.341 17.952C124.341 11.952 128.181 7.968 134.133 7.968C137.541 7.968 140.421 9.504 141.909 12.096L148.533 8.256C145.605 3.504 140.229 0.48 134.133 0.48C124.005 0.48 116.661 8.064 116.661 17.952C116.661 27.84 124.005 35.424 134.133 35.424Z" fill="black"/>
<path d="M159.812 27.36V21.408H171.812V14.112H159.812V8.544H173.012V1.152H152.132V34.752H173.252V27.36H159.812Z" fill="black"/>
</svg>
